<?xml version="1.0" encoding="UTF-8"?>
<svg id="Layer_1" xmlns="http://www.w3.org/2000/svg" version="1.1" viewBox="0 0 344.3 308.5">
  <!-- Generator: Adobe Illustrator 29.5.1, SVG Export Plug-In . SVG Version: 2.1.0 Build 141)  -->
  <defs>
    <style>
      .st0 {
        fill: #231e18;
      }

      .st1 {
        fill: #f7a400;
      }
    </style>
  </defs>
  <path class="st1" d="M33.6,54.4l262-20.5c16.9-1.3,31.3,12,31.3,28.9v158.7c0,7-3.2,13.6-8.6,18l-47.5,38.5c-7.5,6.1-17.5,8-26.7,5.2L29.9,218.5c-7.3-2.2-12.4-9-12.4-16.7V71.8c0-9.1,7-16.6,16-17.3Z"/>
  <path class="st0" d="M87.9,72l-41.7,2.6v65.8h26.3v-17.7s15.5,0,15.5,0c12.2,0,17.7-9,17.7-19.9v-14.4c0-11-5.6-17.1-17.7-16.4ZM80.4,110.2h-8v-22.6l8-.4v23Z"/>
  <path class="st0" d="M143.1,119.2h-6.9v-50.6s-26.2,1.5-26.2,1.5v42.3c0,18,9.5,27.9,29.7,28.4,20.4-.4,29.5-9.2,29.5-28.7v-45.4s-26,1.5-26,1.5v51Z"/>
  <path class="st0" d="M231.8,82.8c-.8-10.2-7-17.1-19-18.9,0,0,0,0,0,0-.5,0-.9-.1-1.4-.2,0,0-.1,0-.2,0-.4,0-.9,0-1.3-.1-.1,0-.2,0-.3,0-.4,0-.8,0-1.3,0-.1,0-.3,0-.4,0-.4,0-.8,0-1.2,0-.2,0-.3,0-.5,0-.4,0-.8,0-1.3,0-.2,0-.3,0-.5,0-.6,0-1.2,0-1.8,0,0,0,0,0,0,0h0s0,0,0,0c-.6,0-1.1,0-1.7.1,0,0-.2,0-.3,0-.6,0-1.1.1-1.6.2,0,0,0,0-.1,0-4.5.5-8.4,1.5-11.7,2.9-9.5,3.9-14.1,11-14.1,20.2v1.9h0c0,1.5,0,2.8.2,4,1,8.4,5.8,13.4,16.8,15.7l11.3,2.4c3.3.7,4.3,2.3,4.6,4.4,0,0,0,0,0,.1,0,0,0,0,0,.1,0,.4,0,.7,0,1.1v1.3c0,2.6-1,4.3-3.4,4.3,0,0,0,0,0,0-2.2,0-3.4-1.8-3.4-4.2,0,0,0,0,0,0v-2.9h0v-1.5h-26.1v4.6c0,.8,0,1.7.1,2.5h0c.8,9.6,7,16.6,19.2,19.3,0,0,0,0,0,0,.5.1.9.2,1.4.3,0,0,.1,0,.2,0,.4,0,.9.2,1.3.2.1,0,.2,0,.3,0,.4,0,.8.1,1.3.2.1,0,.3,0,.4,0,.4,0,.8,0,1.2.1.2,0,.3,0,.5,0,.4,0,.8,0,1.3,0,.2,0,.3,0,.5,0,.6,0,1.2,0,1.8,0,0,0,0,0,0,0h0s0,0,0,0c.6,0,1.1,0,1.7,0,0,0,.2,0,.3,0,.6,0,1.1,0,1.6,0,0,0,0,0,.1,0,4.5-.1,8.4-.8,11.6-1.9,9.4-3.3,14-10.6,14-20.4v-2h0c0-1.6,0-3-.2-4.3-1-9-5.7-14.3-16.7-16.5l-11.3-2.2c-3.3-.6-4.3-2.2-4.6-4.3,0,0,0,0,0-.1,0,0,0,0,0-.1,0-.4,0-.7,0-1.1v-1.3c0-2.6,1-4.3,3.4-4.4,0,0,0,0,0,0,2.2,0,3.4,1.7,3.4,4.1,0,0,0,0,0,0v2.9h0s0,2.1,0,2.1l25.9-.6v-5.5c0-.9,0-1.8-.1-2.6h0Z"/>
  <polygon class="st0" points="268.1 90.1 261.6 90.3 261.6 61.4 236.3 62.9 236.3 140.3 261.6 140.3 261.6 110.2 268.1 110.2 268.1 140.3 293.7 140.3 293.7 59.6 268.1 61.1 268.1 90.1"/>
  <rect class="st0" x="46.2" y="171.3" width="88.3" height="24.6"/>
  <path class="st0" d="M183.8,216.6l-8.5-.5v-68.9s-31.9,0-31.9,0v59.9c0,21.2,11.5,31.8,36.1,33.7,24.7,1.9,36.2-10,36.2-31.9v-61.7h-31.9v69.4Z"/>
  <path class="st0" d="M272,147.3h-49v94.9l30.2,2.3v-23.9l18.7,1.1c14.8.8,21.8-8.1,21.6-22v-29.5c0-14-6.9-22.9-21.6-22.9ZM263,201.7l-9.7-.4v-32.6h9.7v33Z"/>
</svg>