<?xml version="1.0" encoding="UTF-8"?>
<svg id="Layer_1" data-name="Layer 1" xmlns="http://www.w3.org/2000/svg" viewBox="0 0 317.82 189.26">
  <defs>
    <style>
      .cls-1 {
        fill: #231e18;
      }

      .cls-2 {
        fill: #f7a400;
      }
    </style>
  </defs>
  <path class="cls-2" d="M0,49.87v67.14c0,4.97,3.77,9.12,8.72,9.59l267.25,25.57c4.56.44,9.09-1.1,12.45-4.21l25.29-23.45c2.62-2.43,4.11-5.85,4.11-9.42V34.25c0-9.35-7.95-16.72-17.27-16.02L8.91,40.26c-5.03.38-8.91,4.57-8.91,9.61Z"/>
  <path class="cls-1" d="M23.99,12.79l-8.17.77v-5.78s24.27-2.28,24.27-2.28v5.78s-8.16.77-8.16.77v16.67s-7.94.75-7.94.75V12.79Z"/>
  <path class="cls-1" d="M63.6,17.24l-11.79,1.11v8.49s-7.92.75-7.92.75V5.13s7.93-.75,7.93-.75v8.12s11.78-1.11,11.78-1.11V3.28s7.92-.75,7.92-.75v22.45s-7.93.75-7.93.75v-8.49Z"/>
  <path class="cls-1" d="M75.81,2.13l22.63-2.13v5.15s-14.7,1.38-14.7,1.38v3.61s14.7-1.38,14.7-1.38v4.84s-14.7,1.38-14.7,1.38v3.69s14.7-1.38,14.7-1.38v5.15s-22.64,2.13-22.64,2.13V2.13Z"/>
  <path class="cls-1" d="M13.71,148.42v-.6c0-7.66,5.88-10.85,15.36-9.77,9.41,1.07,14.4,4.77,15.17,11.51l-8.13-.92c-.31-3.03-2.51-4.68-7.04-5.2-4.63-.52-7.25,1.2-7.25,5.31v.6c0,4.11,2.62,6.43,7.25,6.95,4.46.51,6.67-.65,7.04-3.59l8.13.92c-.78,6.55-5.76,9.12-15.18,8.05-9.47-1.07-15.35-5.6-15.35-13.26Z"/>
  <path class="cls-1" d="M67.87,157l-11.77-1.33v8.52s-7.91-.9-7.91-.9v-22.53s7.91.9,7.91.9v8.15s11.77,1.34,11.77,1.34v-8.15s7.91.9,7.91.9v22.53s-7.91-.9-7.91-.9v-8.52Z"/>
  <path class="cls-1" d="M87.94,145.26l12.44,1.41,9.69,23.63-8.42-.95-1.67-4.26-11.62-1.32-1.66,3.89-8.4-.95,9.63-21.44ZM97.84,159.6l-3.62-9.29-.13-.02-3.6,8.47,7.36.83Z"/>
  <path class="cls-1" d="M112.62,148.06l7.92.9v16.81s12.19,1.38,12.19,1.38v5.73s-20.11-2.28-20.11-2.28v-22.53Z"/>
  <path class="cls-1" d="M136.01,150.71l7.92.9v16.81s12.19,1.38,12.19,1.38v5.73s-20.11-2.28-20.11-2.28v-22.53Z"/>
  <path class="cls-1" d="M159.41,153.37l22.6,2.56v5.17s-14.68-1.66-14.68-1.66v3.63s14.68,1.66,14.68,1.66v4.86s-14.68-1.66-14.68-1.66v3.7s14.68,1.66,14.68,1.66v5.17s-22.61-2.56-22.61-2.56v-22.53Z"/>
  <path class="cls-1" d="M186.56,156.45l12.26,1.39,9.52,18.77h.03s0-17.68,0-17.68l6.94.79v22.53s-12.27-1.39-12.27-1.39l-9.52-18.77h-.03s0,17.68,0,17.68l-6.94-.79v-22.53Z"/>
  <path class="cls-1" d="M219.26,171.68v-.59c0-7.39,5.61-10.85,15.33-9.75,8.97,1.02,14.59,4.42,15.04,10.41l-8.15-.92c-.42-2.42-2.76-3.71-6.89-4.18-4.6-.52-7.22,1.28-7.22,5.36v.59c0,4.14,2.51,6.58,7.47,7.14,2.58.29,4.92.08,6.91-.44v-2.21s-7.22-.82-7.22-.82v-4.01s15.22,1.73,15.22,1.73v12.15s-3.69-.42-3.69-.42l-1.34-3.25c-2.49,2.11-6.43,2.93-10.64,2.45-8.97-1.02-14.82-5.55-14.81-13.24Z"/>
  <path class="cls-1" d="M254.64,164.17l22.6,2.56v5.17s-14.68-1.66-14.68-1.66v3.63s14.68,1.66,14.68,1.66v4.86s-14.68-1.66-14.68-1.66v3.7s14.68,1.66,14.68,1.66v5.17s-22.61-2.56-22.61-2.56v-22.53Z"/>
  <path class="cls-1" d="M47.79,47.44l-31.97,1.82v47.11l20.12.71-.03-10.3,11.88.19c9.31.15,13.58-7.06,13.58-15.44v-11.01c0-8.45-4.29-13.61-13.58-13.07ZM41.41,77.03h-5.5v-17.34l5.5-.19v17.54Z"/>
  <path class="cls-1" d="M90.03,83l-5.31-.04v-37.62s-20.06,1.14-20.06,1.14v31.31c0,13.82,7.2,21.27,22.72,21.74,15.45.47,22.59-7.09,22.59-21.96v-33.67s-19.93,1.13-19.93,1.13v37.96Z"/>
  <path class="cls-1" d="M158.02,56.26c-.64-7.83-5.34-13.13-14.59-14.5,0,0-.02,0-.02,0-.35-.05-.72-.1-1.08-.14-.05,0-.09-.01-.14-.02-.33-.03-.67-.06-1.01-.09-.08,0-.16-.01-.24-.02-.32-.02-.64-.04-.96-.05-.11,0-.21-.01-.32-.01-.31,0-.62-.01-.94-.02-.13,0-.25,0-.38,0-.32,0-.64,0-.96.01-.13,0-.26,0-.39,0-.44.01-.89.03-1.35.06-.01,0-.02,0-.03,0h0s0,0,0,0c-.43.03-.86.06-1.28.09-.07,0-.14.01-.21.02-.42.04-.84.08-1.25.13-.03,0-.05,0-.08,0-3.44.4-6.42,1.15-8.95,2.2-7.3,2.98-10.83,8.44-10.83,15.46v1.49c0,1.08.06,2.09.18,3.05.8,6.47,4.42,10.25,12.86,12l8.67,1.83c2.52.55,3.3,1.76,3.49,3.36,0,.03,0,.07.01.1,0,.03,0,.06,0,.1.02.28.03.57.03.86v1.03c0,1.98-.79,3.28-2.62,3.27-.03,0-.05,0-.08,0-1.71-.05-2.57-1.37-2.58-3.26,0,0,0-.02,0-.03v-2.19h0v-1.11l-19.97-.05v3.54c0,.65.03,1.28.09,1.9h0c.65,7.36,5.4,12.69,14.71,14.77,0,0,.02,0,.02,0,.36.08.72.16,1.09.23.05,0,.09.02.14.03.33.06.67.12,1.02.17.08.01.16.03.24.04.32.05.64.09.96.13.11.01.21.03.32.04.31.04.62.07.94.1.13.01.25.03.38.04.32.03.64.05.97.07.13,0,.26.02.39.03.44.03.9.05,1.35.06.01,0,.02,0,.03,0h0s0,0,0,0c.43.01.86.02,1.28.02.07,0,.14,0,.21,0,.42,0,.84,0,1.25-.02.03,0,.05,0,.08,0,3.43-.1,6.4-.6,8.92-1.46,7.24-2.53,10.73-8.08,10.73-15.59v-1.59c0-1.15-.06-2.24-.18-3.26-.79-6.92-4.38-10.93-12.76-12.66l-8.65-1.71c-2.52-.5-3.3-1.69-3.49-3.27,0-.03,0-.07-.01-.1,0-.03,0-.06,0-.09-.02-.28-.03-.56-.03-.85v-1.02c0-1.97.79-3.29,2.62-3.36.03,0,.05,0,.08,0,1.71-.02,2.57,1.26,2.58,3.16,0,0,0,.02,0,.03v2.2h0s0,1.59,0,1.59l19.84-.48v-4.23c0-.69-.03-1.37-.09-2.03h0Z"/>
  <polygon class="cls-1" points="185.8 61.85 180.84 61.97 180.84 39.86 161.42 40.97 161.42 101.49 180.84 102.18 180.84 78.36 185.8 78.36 185.8 102.35 205.09 103.03 205.09 38.48 185.8 39.58 185.8 61.85"/>
  <polygon class="cls-1" points="161.42 116.3 205.09 118.82 205.09 107.91 161.42 106.06 161.42 116.3"/>
  <path class="cls-1" d="M234.41,120.51l-5.22-.3v-41.85s-19.61,0-19.61,0v36.26c0,13.21,7.06,19.82,22.22,21.02,15.19,1.2,22.27-6.25,22.27-19.93v-37.35h-19.66v42.15Z"/>
  <path class="cls-1" d="M288.69,78.36h-30.13v58.11l18.61,1.43v-14.92l11.51.66c9.11.53,13.39-5.07,13.32-13.73v-17.29c0-8.73-4.25-14.26-13.31-14.26ZM283.14,111.2l-5.96-.25v-20.35l5.96.09v20.51Z"/>
</svg>